<?xml version="1.0" encoding="iso-8859-1"?>
<!-- Generator: Adobe Illustrator 16.0.0, SVG Export Plug-In . SVG Version: 6.00 Build 0)  -->
<!DOCTYPE svg PUBLIC "-//W3C//DTD SVG 1.1//EN" "http://www.w3.org/Graphics/SVG/1.1/DTD/svg11.dtd">
<svg version="1.1" id="Capa_1" xmlns="http://www.w3.org/2000/svg" xmlns:xlink="http://www.w3.org/1999/xlink" x="0px" y="0px"
	 width="468.397px" height="468.397px" viewBox="0 0 468.397 468.397" style="enable-background:new 0 0 468.397 468.397;"
	 xml:space="preserve">
<g>
	<path d="M234.201,0C105.062,0,0.001,105.059,0.001,234.2c0,129.139,105.061,234.198,234.2,234.198
		c129.132,0,234.194-105.059,234.194-234.198C468.396,105.059,363.356,0,234.201,0z M234.201,444.851
		c-116.153,0-210.648-94.504-210.648-210.651c0-116.145,94.503-210.65,210.648-210.65c116.147,0,210.643,94.505,210.643,210.65
		C444.844,350.347,350.349,444.851,234.201,444.851z M314.891,234.2c0-44.497-36.187-80.693-80.681-80.693
		c-44.489,0-80.678,36.197-80.678,80.693c0,44.495,36.197,80.69,80.678,80.69C278.688,314.89,314.891,278.694,314.891,234.2z
		 M234.201,291.338c-31.521,0-57.134-25.636-57.134-57.138c0-31.512,25.629-57.142,57.134-57.142
		c31.502,0,57.122,25.63,57.122,57.142C291.339,265.714,265.72,291.338,234.201,291.338z M234.201,192.939
		c-22.75,0-41.269,18.51-41.269,41.26c0,22.747,18.511,41.26,41.269,41.26c22.746,0,41.261-18.498,41.261-41.26
		C275.462,211.45,256.964,192.939,234.201,192.939z M234.201,251.908c-9.774,0-17.717-7.942-17.717-17.708
		s7.951-17.708,17.717-17.708c9.767,0,17.709,7.942,17.709,17.708S243.976,251.908,234.201,251.908z M291.115,316.905l51.03,75.796
		c0,0-31.302,35.759-78.458,39.321l-15.749-100.467C247.938,331.556,279.341,331.668,291.115,316.905z M169.217,159.353L118.19,75.7
		c0,0,35.552-31.466,78.453-31.466l15.751,92.6C212.395,136.833,182.193,138.25,169.217,159.353z M228.068,139.089l-14.056-98.857
		l15.543-2.208l14.061,98.861L228.068,139.089z"/>
</g>
<g>
</g>
<g>
</g>
<g>
</g>
<g>
</g>
<g>
</g>
<g>
</g>
<g>
</g>
<g>
</g>
<g>
</g>
<g>
</g>
<g>
</g>
<g>
</g>
<g>
</g>
<g>
</g>
<g>
</g>
</svg>
